HIERARCHY
ROOT Hips
{
	OFFSET 0.000000 89.005402 0.000000
	CHANNELS 6 Xposition Yposition Zposition Xrotation Yrotation Zrotation
	JOINT Spine
	{
		OFFSET 0.116900 10.681000 0.373400
		CHANNELS 3 Xrotation Yrotation Zrotation
		JOINT Spine1
		{
			OFFSET 0.000000 13.840401 0.053500
			CHANNELS 3 Xrotation Yrotation Zrotation
			JOINT Spine2
			{
				OFFSET 0.000000 14.712700 -0.366200
				CHANNELS 3 Xrotation Yrotation Zrotation
				JOINT Neck
				{
					OFFSET 0.000000 35.415497 -3.314200
					CHANNELS 3 Xrotation Yrotation Zrotation
					JOINT Head
					{
						OFFSET 0.000000 16.899200 1.218300
						CHANNELS 3 Xrotation Yrotation Zrotation
						JOINT HeadTop_End
						{
							OFFSET 0.000000 22.206207 2.192500
							CHANNELS 3 Xrotation Yrotation Zrotation
							End Site
							{
								OFFSET 0.000000 22.314178 0.000000
							}
						}
					}
				}
				JOINT LeftShoulder
				{
					OFFSET 12.896400 26.716293 -4.548400
					CHANNELS 3 Xrotation Yrotation Zrotation
					JOINT LeftArm
					{
						OFFSET 19.027000 -4.857010 -1.718400
						CHANNELS 3 Xrotation Yrotation Zrotation
						JOINT LeftForeArm
						{
							OFFSET 24.179897 0.000000 0.000000
							CHANNELS 3 Xrotation Yrotation Zrotation
							JOINT LeftHand
							{
								OFFSET 27.156403 0.000000 0.000000
								CHANNELS 3 Xrotation Yrotation Zrotation
								JOINT LeftHandIndex1
								{
									OFFSET 16.441200 0.000000 0.000000
									CHANNELS 3 Xrotation Yrotation Zrotation
									JOINT LeftHandIndex2
									{
										OFFSET 4.821899 0.000000 0.000000
										CHANNELS 3 Xrotation Yrotation Zrotation
										JOINT LeftHandIndex3
										{
											OFFSET 6.386497 0.000000 0.000000
											CHANNELS 3 Xrotation Yrotation Zrotation
											JOINT LeftHandIndex4
											{
												OFFSET 5.188988 0.000000 0.000000
												CHANNELS 3 Xrotation Yrotation Zrotation
												End Site
												{
													OFFSET -0.178703 5.185913 0.000177
												}
											}
										}
									}
								}
								JOINT LeftHandThumb1
								{
									OFFSET 6.534897 -5.032593 5.900300
									CHANNELS 3 Xrotation Yrotation Zrotation
									JOINT LeftHandThumb2
									{
										OFFSET 3.818176 -2.204422 2.204423
										CHANNELS 3 Xrotation Yrotation Zrotation
										JOINT LeftHandThumb3
										{
											OFFSET 3.252098 -1.877594 1.877601
											CHANNELS 3 Xrotation Yrotation Zrotation
											JOINT LeftHandThumb4
											{
												OFFSET 5.251778 -3.032120 3.032117
												CHANNELS 3 Xrotation Yrotation Zrotation
												End Site
												{
													OFFSET 0.000023 6.780014 0.000000
												}
											}
										}
									}
								}
							}
						}
					}
				}
				JOINT RightShoulder
				{
					OFFSET -12.896300 26.716293 -4.548400
					CHANNELS 3 Xrotation Yrotation Zrotation
					JOINT RightArm
					{
						OFFSET -19.027000 -4.857010 -1.718400
						CHANNELS 3 Xrotation Yrotation Zrotation
						JOINT RightForeArm
						{
							OFFSET -24.179897 0.000000 0.000000
							CHANNELS 3 Xrotation Yrotation Zrotation
							JOINT RightHand
							{
								OFFSET -27.156403 0.000000 0.000000
								CHANNELS 3 Xrotation Yrotation Zrotation
								JOINT RightHandThumb1
								{
									OFFSET -6.591202 -4.852203 5.988100
									CHANNELS 3 Xrotation Yrotation Zrotation
									JOINT RightHandThumb2
									{
										OFFSET -3.818176 -2.204422 2.204423
										CHANNELS 3 Xrotation Yrotation Zrotation
										JOINT RightHandThumb3
										{
											OFFSET -3.252098 -1.877594 1.877601
											CHANNELS 3 Xrotation Yrotation Zrotation
											JOINT RightHandThumb4
											{
												OFFSET -5.251778 -3.032120 3.032117
												CHANNELS 3 Xrotation Yrotation Zrotation
												End Site
												{
													OFFSET -0.000023 6.780014 0.000000
												}
											}
										}
									}
								}
								JOINT RightHandIndex1
								{
									OFFSET -16.029404 0.000000 0.000000
									CHANNELS 3 Xrotation Yrotation Zrotation
									JOINT RightHandIndex2
									{
										OFFSET -5.213303 0.000000 0.000000
										CHANNELS 3 Xrotation Yrotation Zrotation
										JOINT RightHandIndex3
										{
											OFFSET -6.386528 0.000000 0.000000
											CHANNELS 3 Xrotation Yrotation Zrotation
											JOINT RightHandIndex4
											{
												OFFSET -5.189026 0.000000 0.000000
												CHANNELS 3 Xrotation Yrotation Zrotation
												End Site
												{
													OFFSET 0.236702 5.183624 0.001972
												}
											}
										}
									}
								}
							}
						}
					}
				}
			}
		}
	}
	JOINT LeftUpLeg
	{
		OFFSET 14.073000 -7.904099 -1.463000
		CHANNELS 3 Xrotation Yrotation Zrotation
		JOINT LeftLeg
		{
			OFFSET -0.109806 -34.073280 4.093200
			CHANNELS 3 Xrotation Yrotation Zrotation
			JOINT LeftFoot
			{
				OFFSET 0.109806 -29.899420 -6.319000
				CHANNELS 3 Xrotation Yrotation Zrotation
				JOINT LeftToeBase
				{
					OFFSET 1.551100 -14.988700 20.535801
					CHANNELS 3 Xrotation Yrotation Zrotation
					JOINT LeftToe_End
					{
						OFFSET 0.221200 0.570800 13.248301
						CHANNELS 3 Xrotation Yrotation Zrotation
						End Site
						{
							OFFSET 0.000000 13.262435 0.000000
						}
					}
				}
			}
		}
	}
	JOINT RightUpLeg
	{
		OFFSET -13.839300 -7.904099 -1.463000
		CHANNELS 3 Xrotation Yrotation Zrotation
		JOINT RightLeg
		{
			OFFSET 0.109694 -34.073219 4.093300
			CHANNELS 3 Xrotation Yrotation Zrotation
			JOINT RightFoot
			{
				OFFSET -0.109694 -29.899384 -6.319200
				CHANNELS 3 Xrotation Yrotation Zrotation
				JOINT RightToeBase
				{
					OFFSET -1.551100 -14.988700 20.535801
					CHANNELS 3 Xrotation Yrotation Zrotation
					JOINT RightToe_End
					{
						OFFSET -0.221200 0.570900 13.248299
						CHANNELS 3 Xrotation Yrotation Zrotation
						End Site
						{
							OFFSET 0.000000 13.262440 0.000000
						}
					}
				}
			}
		}
	}
}
MOTION
Frames: 6
Frame Time: 0.033333
0.175774 81.434624 1.143774 12.454187 -21.693637 -3.506970 35.866181 4.953781 7.143767 -2.874515 1.446229 -4.552576 -1.956504 -0.336184 -3.245159 -18.156058 3.744837 4.001715 -22.006253 13.491860 -3.773379 0.000000 0.000000 -0.000000 7.313335 -37.639571 22.669251 -34.526576 0.818485 -71.425569 0.000018 -64.918059 -4.810795 -25.968876 -7.578310 3.969182 0.016532 0.020166 -62.650750 3.418695 -3.814714 -92.040378 6.873841 -0.995149 -31.321970 -0.000003 -0.000002 -0.000003 16.185482 29.318420 -23.146316 0.081690 -3.109441 31.629663 86.669964 8.445452 -8.747589 -0.000001 0.000002 0.000001 11.762985 21.966930 -20.602338 -61.592952 -4.491663 73.295020 0.000037 61.923185 10.375481 -18.440143 5.201201 13.812610 -6.669741 -8.252420 4.685625 31.152455 -25.871665 -9.425322 34.286863 -23.029508 -7.680587 -0.000002 -0.000001 0.000003 -4.887998 -9.034003 55.242597 0.263026 0.051638 104.710277 0.628732 -1.753390 38.215998 -0.000001 -0.000002 -0.000006 -51.066825 -3.918164 8.134923 73.741352 9.465837 -0.369172 9.973995 0.375098 -3.009716 -42.375508 3.535683 -3.875490 0.000000 0.000000 -0.000000 -29.998498 -9.006644 6.375496 33.359771 -5.460705 5.031253 -12.203504 0.755427 -4.493401 -3.065411 0.525828 0.003277 -0.000000 0.000000 0.000000 
-1.084323 81.595802 8.121658 11.195688 -17.823959 -2.705398 32.688954 3.888545 4.407564 -2.696691 1.735673 -3.999982 -1.836949 0.144738 -2.870631 -17.866868 4.379666 3.508544 -17.405682 13.826464 -5.522108 -0.000000 -0.000000 0.000000 10.521419 -40.438558 27.517311 -40.550724 -5.896749 -61.845341 -0.000009 -69.471992 1.362020 -30.680370 -13.483709 19.416051 -0.110936 0.198612 -62.888892 3.431646 -3.649025 -91.234894 6.671082 -1.122009 -32.155615 0.000001 -0.000001 -0.000003 15.694395 28.817343 -22.761021 0.529218 -2.378153 31.259440 86.607960 8.530593 -8.790080 -0.000001 -0.000001 0.000001 11.287707 15.525602 -22.986677 -71.903649 -4.320943 74.087991 -0.000007 70.191942 9.263793 -18.335907 6.227375 15.340151 -6.413607 -7.989610 4.440636 30.765542 -26.007434 -8.963560 34.231610 -23.393553 -7.435002 0.000002 0.000001 -0.000001 -4.583502 -8.719028 54.824129 0.253147 0.049670 104.854954 0.631180 -1.750370 38.128380 -0.000000 -0.000000 -0.000005 -55.664235 -2.855277 11.339022 71.251700 6.113736 -5.072649 -5.695063 0.508402 -1.930819 -1.037990 -0.445431 -0.286432 -0.000000 -0.000000 0.000000 -22.459436 -10.594996 4.012369 35.065109 -4.431760 2.686943 -20.029700 -0.642983 -1.139452 -3.131653 0.557714 0.080018 -0.000000 -0.000001 -0.000000 
-2.080240 82.316223 15.362023 9.531047 -12.380572 -3.094959 29.166639 2.938810 2.492328 -2.315312 1.619952 -3.028590 -1.524169 0.241814 -2.081357 -17.100074 4.775417 2.949250 -12.436359 12.962441 -7.140278 0.000000 0.000001 0.000000 13.378141 -46.577457 29.574050 -45.905531 -14.200818 -50.147143 0.000027 -63.273472 9.216475 -32.813253 -15.570617 19.822082 -0.236937 0.378067 -63.126732 3.445450 -3.484066 -90.429294 6.466073 -1.243558 -32.990189 0.000000 0.000001 -0.000001 15.207314 28.315637 -22.381444 0.977375 -1.649408 30.880542 86.545996 8.615776 -8.832445 -0.000000 0.000000 -0.000001 10.140493 13.144662 -20.499466 -80.751838 -1.460399 69.365564 -0.000016 71.658834 5.751520 -17.788149 12.045630 14.533944 -6.157147 -7.730143 4.191783 30.381648 -26.150317 -8.501594 34.176972 -23.758688 -7.190206 -0.000001 0.000000 0.000000 -4.274647 -8.409268 54.405206 0.243277 0.047604 104.999603 0.643421 -1.746754 38.041316 -0.000000 -0.000000 0.000001 -56.311662 -2.788494 11.980659 63.615713 8.282440 -7.969009 -16.642203 1.448587 -3.273435 3.160093 -0.492365 0.557445 -0.000000 -0.000000 0.000000 -9.969723 -14.493972 3.809813 29.102572 -4.961641 0.801125 -24.456732 -0.978878 0.592326 -3.175580 0.182279 0.821594 0.000000 -0.000002 -0.000000 
-2.623350 83.517456 23.281832 7.461558 -4.645284 -5.174568 25.076075 1.863824 2.022771 -1.754430 0.873450 -1.485516 -1.055395 -0.270332 -0.720527 -15.415554 4.803074 2.294088 -7.169436 10.601524 -8.293122 -0.000000 -0.000001 0.000000 13.434038 -56.242315 25.703487 -46.264385 -23.901007 -36.121257 0.000049 -52.253444 13.568102 -30.242729 -21.695869 7.354763 -0.361440 0.558597 -63.364334 3.460149 -3.319866 -89.623666 6.258915 -1.359807 -33.825716 -0.000000 -0.000001 0.000001 14.724448 27.813927 -22.006275 1.428161 -0.925887 30.492191 86.484081 8.701020 -8.874704 0.000001 -0.000001 0.000001 8.255152 14.498014 -11.347536 -81.589253 6.368071 61.133185 0.000064 75.388097 0.188695 -17.176088 19.096449 8.187520 -5.900767 -7.474723 3.938070 30.001319 -26.300478 -8.039561 34.123062 -24.124524 -6.945800 -0.000004 -0.000001 -0.000001 -3.961511 -8.104767 53.985802 0.233438 0.045537 105.144301 0.659679 -1.735279 37.954398 -0.000002 -0.000006 0.000001 -54.726956 -3.514834 11.155271 54.517822 17.326344 -9.285613 -19.607180 1.704410 -5.956900 1.169987 -0.524898 0.521283 0.000001 -0.000001 0.000001 6.316930 -17.288406 8.356271 17.668892 -11.724261 -0.657962 -23.362058 0.557005 0.465259 -10.313742 -0.582088 6.233326 -0.000001 -0.000001 -0.000000 
-3.171247 83.488892 31.836136 5.716037 4.343879 -7.861937 20.737306 0.363799 2.140432 -1.226135 -0.319480 0.211465 -0.643407 -1.224642 0.803465 -13.024748 4.522645 1.669357 -1.996143 7.748336 -8.730831 0.000001 0.000000 0.000000 10.010673 -65.004707 18.705673 -48.142824 -31.696319 -26.290050 0.000047 -40.585274 9.835501 -23.397967 -32.587912 -8.107708 -0.484460 0.740178 -63.601622 3.471080 -3.156054 -88.818236 6.049714 -1.470664 -34.662175 0.000000 -0.000001 -0.000002 14.245562 27.312074 -21.635797 1.881126 -0.206881 30.094531 86.422220 8.786355 -8.916847 -0.000002 -0.000000 -0.000001 6.382247 16.827542 -2.126728 -78.566430 10.668888 54.329941 0.000562 81.065466 -4.884681 -14.561794 26.994024 -2.979739 -5.643213 -7.221334 3.682920 29.624511 -26.457773 -7.577473 34.069831 -24.491260 -6.701940 0.000001 -0.000002 0.000002 -3.644133 -7.805572 53.566039 0.223579 0.043411 105.288957 0.675994 -1.723884 37.867460 -0.000001 -0.000000 -0.000002 -52.982068 -2.532387 9.377853 45.356025 24.535564 -9.796977 -15.679147 0.962424 -1.987009 -0.852998 -0.560836 0.482269 -0.000001 -0.000000 0.000001 -0.934938 -20.701935 4.473969 43.493938 -20.299414 -1.613947 -9.259687 -0.111959 10.061486 -23.985077 -2.635421 10.384056 -0.000000 0.000000 0.000000 
-3.699256 81.777222 40.286598 4.895369 13.064030 -10.256702 16.510374 -1.259760 2.063226 -0.786111 -1.613831 1.533273 -0.337369 -2.285733 1.970817 -10.799211 3.966044 1.325933 2.784593 5.251767 -8.447479 0.000001 0.000001 -0.000000 7.016834 -70.880336 14.459321 -53.127844 -34.997982 -23.168439 0.000028 -33.334154 2.708703 -18.977638 -35.857434 -29.371524 -0.605958 0.922771 -63.838691 3.474644 -2.992384 -88.013162 5.838567 -1.576083 -35.499519 -0.000002 -0.000002 0.000001 13.770591 26.810130 -21.269948 2.336408 0.507535 29.687550 86.360365 8.871717 -8.958830 -0.000000 -0.000001 0.000002 5.493781 20.314699 2.137907 -76.553559 5.682702 51.703412 0.000898 88.230041 -5.776757 -6.779039 32.619867 -19.667446 -5.384500 -6.969957 3.426352 29.251235 -26.622221 -7.115378 34.017248 -24.858815 -6.458602 -0.000002 -0.000000 -0.000002 -3.322590 -7.511707 53.145746 0.213753 0.041216 105.433621 0.692356 -1.712534 37.780519 0.000000 -0.000000 -0.000000 -52.655168 0.042500 4.848577 37.235046 26.558467 -6.132456 -8.450433 -0.369119 9.321064 -2.468641 -0.594563 0.447141 -0.000002 0.000000 0.000000 -3.089632 -20.098551 1.091918 51.461036 -19.679243 0.669877 19.180763 4.115600 10.929076 -50.316631 -18.000800 17.230880 -0.000000 -0.000000 -0.000001 
